<?xml version="1.0" standalone="no"?>
<!DOCTYPE svg PUBLIC "-//W3C//DTD SVG 20010904//EN"
 "http://www.w3.org/TR/2001/REC-SVG-20010904/DTD/svg10.dtd">
<svg version="1.0" xmlns="http://www.w3.org/2000/svg"
 width="421.000000pt" height="421.000000pt" viewBox="0 0 421.000000 421.000000"
 preserveAspectRatio="xMidYMid meet">
<metadata>
Created by potrace 1.11, written by Peter Selinger 2001-2013
</metadata>
<g transform="translate(0.000000,421.000000) scale(0.100000,-0.100000)"
fill="#000000" stroke="none">
<path d="M2324 3829 c-44 -21 -146 -57 -225 -80 -128 -36 -309 -111 -309 -128
0 -3 -12 -12 -27 -18 -16 -7 -48 -31 -73 -54 -36 -33 -46 -38 -48 -24 -3 11
-10 15 -23 12 -10 -3 -18 -2 -17 2 8 67 -23 50 -85 -46 -31 -49 -60 -92 -65
-98 -16 -19 -73 -125 -68 -125 3 0 1 -11 -4 -26 -14 -35 -26 -112 -35 -219 -5
-59 -18 -474 -18 -591 -1 -64 -4 -81 -14 -77 -7 3 -13 9 -13 14 0 17 -55 -19
-68 -43 -18 -35 -23 -74 -22 -177 0 -176 18 -294 49 -330 10 -11 21 -18 25
-14 3 3 7 0 7 -8 1 -8 3 -36 5 -63 13 -187 85 -402 181 -540 83 -119 268 -316
297 -316 8 0 21 -7 29 -15 22 -22 135 -44 202 -40 97 7 167 26 334 91 189 75
274 128 400 254 31 31 67 70 81 89 14 18 30 38 35 44 6 7 26 35 45 62 49 70
79 98 99 90 50 -20 87 -11 130 33 33 33 111 147 111 161 0 6 5 11 12 11 6 0 9
3 5 6 -3 4 1 13 9 21 8 8 12 19 9 24 -4 5 -1 9 4 9 6 0 11 8 11 18 0 10 3 22
8 26 4 4 8 12 8 17 1 5 3 10 4 12 3 3 8 32 13 80 3 24 -3 52 -16 78 -19 39
-22 41 -58 36 l-38 -5 16 24 c8 13 12 24 9 24 -4 0 -2 9 4 20 11 20 56 168 64
211 2 13 9 36 15 52 6 15 8 27 6 27 -3 0 1 15 8 33 12 28 26 80 33 127 1 8 5
24 7 35 3 11 8 40 12 65 4 25 9 54 11 65 11 52 3 159 -20 245 -40 158 -151
417 -183 427 -6 2 -11 -11 -12 -29 -1 -18 -3 -39 -3 -47 -1 -9 -8 -6 -21 10
-10 13 -32 40 -49 59 -16 19 -48 72 -70 117 -21 46 -45 88 -51 95 -7 7 -21 30
-32 51 -11 20 -22 37 -26 37 -12 0 -25 -25 -45 -83 l-19 -59 -7 34 c-4 18 -10
51 -12 74 -8 58 -56 218 -67 222 -5 2 -9 10 -9 17 0 26 -16 23 -70 -12 -60
-37 -190 -106 -190 -99 0 2 -20 -2 -45 -10 l-45 -13 -1 67 c-1 105 -1 105 -95
61z"/>
</g>
</svg>
